<?xml version="1.0" encoding="UTF-8"?>
<svg xmlns="http://www.w3.org/2000/svg" viewBox="0 0 512 512" fill="none">
  <rect width="512" height="512" rx="112" fill="#0f172a"/>
  <path fill="#1e293b" d="M96 320 Q256 240 416 320 L416 400 Q256 320 96 400 Z"/>
  <path fill="none" stroke="#334155" stroke-width="6" stroke-dasharray="24 20" d="M128 352 Q256 288 384 352"/>
  <line x1="96" y1="320" x2="416" y2="320" stroke="#f97316" stroke-width="8" stroke-linecap="round"/>
  <path fill="#f97316" d="M168 96 H280 C336 96 376 136 376 192 C376 248 336 288 280 288 H224 V416 H168 V96 Z M224 144 V240 H272 C304 240 328 216 328 192 C328 168 304 144 272 144 H224 Z"/>
  <circle cx="360" cy="136" r="20" fill="#fb923c"/>
</svg>
